<svg width="24" height="24" viewBox="0 0 24 24" fill="none" xmlns="http://www.w3.org/2000/svg">
<mask id="mask0_150_1808" style="mask-type:alpha" maskUnits="userSpaceOnUse" x="0" y="0" width="24" height="24">
<rect width="24" height="24" fill="#D9D9D9"/>
</mask>
<g mask="url(#mask0_150_1808)">
<path d="M5 21C4.45 21 3.979 20.8043 3.587 20.413C3.19567 20.021 3 19.55 3 19V5C3 4.45 3.19567 3.979 3.587 3.587C3.979 3.19567 4.45 3 5 3H19C19.55 3 20.021 3.19567 20.413 3.587C20.8043 3.979 21 4.45 21 5V11.7C20.6833 11.55 20.3583 11.4207 20.025 11.312C19.6917 11.204 19.35 11.125 19 11.075V5H5V19H11.05C11.1 19.3667 11.1793 19.7167 11.288 20.05C11.396 20.3833 11.525 20.7 11.675 21H5ZM5 19V5V11.075V11V19ZM7 16C7 16.2833 7.09567 16.5207 7.287 16.712C7.479 16.904 7.71667 17 8 17H11.075C11.125 16.65 11.204 16.3083 11.312 15.975C11.4207 15.6417 11.5417 15.3167 11.675 15H8C7.71667 15 7.479 15.0957 7.287 15.287C7.09567 15.479 7 15.7167 7 16ZM7 12C7 12.2833 7.09567 12.5207 7.287 12.712C7.479 12.904 7.71667 13 8 13H13.1C13.6333 12.5 14.229 12.0833 14.887 11.75C15.5457 11.4167 16.25 11.1917 17 11.075C16.85 11.0417 16.6833 11.0207 16.5 11.012C16.3167 11.004 16.15 11 16 11H8C7.71667 11 7.479 11.0957 7.287 11.287C7.09567 11.479 7 11.7167 7 12ZM7 8C7 8.28333 7.09567 8.52067 7.287 8.712C7.479 8.904 7.71667 9 8 9H16C16.2833 9 16.5207 8.904 16.712 8.712C16.904 8.52067 17 8.28333 17 8C17 7.71667 16.904 7.479 16.712 7.287C16.5207 7.09567 16.2833 7 16 7H8C7.71667 7 7.479 7.09567 7.287 7.287C7.09567 7.479 7 7.71667 7 8ZM18 23C16.6167 23 15.4377 22.5127 14.463 21.538C13.4877 20.5627 13 19.3833 13 18C13 16.6167 13.4877 15.4373 14.463 14.462C15.4377 13.4873 16.6167 13 18 13C19.3833 13 20.5627 13.4873 21.538 14.462C22.5127 15.4373 23 16.6167 23 18C23 19.3833 22.5127 20.5627 21.538 21.538C20.5627 22.5127 19.3833 23 18 23ZM17.5 18.5V20.5C17.5 20.6333 17.55 20.75 17.65 20.85C17.75 20.95 17.8667 21 18 21C18.1333 21 18.25 20.95 18.35 20.85C18.45 20.75 18.5 20.6333 18.5 20.5V18.5H20.5C20.6333 18.5 20.75 18.45 20.85 18.35C20.95 18.25 21 18.1333 21 18C21 17.8667 20.95 17.75 20.85 17.65C20.75 17.55 20.6333 17.5 20.5 17.5H18.5V15.5C18.5 15.3667 18.45 15.25 18.35 15.15C18.25 15.05 18.1333 15 18 15C17.8667 15 17.75 15.05 17.65 15.15C17.55 15.25 17.5 15.3667 17.5 15.5V17.5H15.5C15.3667 17.5 15.25 17.55 15.15 17.65C15.05 17.75 15 17.8667 15 18C15 18.1333 15.05 18.25 15.15 18.35C15.25 18.45 15.3667 18.5 15.5 18.5H17.5Z" fill="#444446"/>
</g>
</svg>
