<svg width="10" height="17" viewBox="0 0 10 17" fill="none" xmlns="http://www.w3.org/2000/svg">
<path d="M7.80475 16.6636L0.246701 9.12797C0.156992 9.03826 0.0935969 8.94107 0.0565169 8.83641C0.0188388 8.73175 0 8.61961 0 8.5C0 8.38039 0.0188388 8.26825 0.0565169 8.16359C0.0935969 8.05893 0.156992 7.96174 0.246701 7.87203L7.80475 0.313984C8.01407 0.104661 8.27573 0 8.58971 0C8.90369 0 9.17282 0.112137 9.3971 0.336412C9.62137 0.560686 9.73351 0.822339 9.73351 1.12137C9.73351 1.4204 9.62137 1.68206 9.3971 1.90633L2.80343 8.5L9.3971 15.0937C9.60642 15.303 9.71108 15.5608 9.71108 15.867C9.71108 16.1738 9.59894 16.4393 9.37467 16.6636C9.1504 16.8879 8.88874 17 8.58971 17C8.29068 17 8.02902 16.8879 7.80475 16.6636Z" fill="white"/>
</svg>
