<svg width="15" height="4" viewBox="0 0 15 4" fill="none" xmlns="http://www.w3.org/2000/svg">
<path d="M2.49998 3.66668C2.04165 3.66668 1.64929 3.50348 1.3229 3.17709C0.996507 2.85071 0.833313 2.45834 0.833313 2.00001C0.833313 1.54168 0.996507 1.14932 1.3229 0.822927C1.64929 0.496538 2.04165 0.333344 2.49998 0.333344C2.95831 0.333344 3.35067 0.496538 3.67706 0.822927C4.00345 1.14932 4.16665 1.54168 4.16665 2.00001C4.16665 2.45834 4.00345 2.85071 3.67706 3.17709C3.35067 3.50348 2.95831 3.66668 2.49998 3.66668ZM7.49998 3.66668C7.04165 3.66668 6.64929 3.50348 6.3229 3.17709C5.99651 2.85071 5.83331 2.45834 5.83331 2.00001C5.83331 1.54168 5.99651 1.14932 6.3229 0.822927C6.64929 0.496538 7.04165 0.333344 7.49998 0.333344C7.95831 0.333344 8.35067 0.496538 8.67706 0.822927C9.00345 1.14932 9.16665 1.54168 9.16665 2.00001C9.16665 2.45834 9.00345 2.85071 8.67706 3.17709C8.35067 3.50348 7.95831 3.66668 7.49998 3.66668ZM12.5 3.66668C12.0416 3.66668 11.6493 3.50348 11.3229 3.17709C10.9965 2.85071 10.8333 2.45834 10.8333 2.00001C10.8333 1.54168 10.9965 1.14932 11.3229 0.822927C11.6493 0.496538 12.0416 0.333344 12.5 0.333344C12.9583 0.333344 13.3507 0.496538 13.6771 0.822927C14.0035 1.14932 14.1666 1.54168 14.1666 2.00001C14.1666 2.45834 14.0035 2.85071 13.6771 3.17709C13.3507 3.50348 12.9583 3.66668 12.5 3.66668Z" fill="#005B40"/>
</svg>
