<svg width="24" height="24" viewBox="0 0 24 24" fill="none" xmlns="http://www.w3.org/2000/svg">
<mask id="mask0_61419_4330" style="mask-type:alpha" maskUnits="userSpaceOnUse" x="0" y="0" width="24" height="24">
<rect width="24" height="24" fill="#D9D9D9"/>
</mask>
<g mask="url(#mask0_61419_4330)">
<path d="M12 17C12.2833 17 12.521 16.904 12.713 16.712C12.9043 16.5207 13 16.2834 13 16V12C13 11.7167 12.9043 11.479 12.713 11.287C12.521 11.0957 12.2833 11 12 11C11.7167 11 11.4793 11.0957 11.288 11.287C11.096 11.479 11 11.7167 11 12V16C11 16.2834 11.096 16.5207 11.288 16.712C11.4793 16.904 11.7167 17 12 17ZM12 9.00002C12.2833 9.00002 12.521 8.90402 12.713 8.71202C12.9043 8.52069 13 8.28336 13 8.00002C13 7.71669 12.9043 7.47902 12.713 7.28702C12.521 7.09569 12.2833 7.00002 12 7.00002C11.7167 7.00002 11.4793 7.09569 11.288 7.28702C11.096 7.47902 11 7.71669 11 8.00002C11 8.28336 11.096 8.52069 11.288 8.71202C11.4793 8.90402 11.7167 9.00002 12 9.00002ZM12 21.925H11.75C11.6667 21.925 11.5917 21.9084 11.525 21.875C9.34167 21.1917 7.54167 19.8374 6.125 17.812C4.70833 15.7874 4 13.55 4 11.1V6.37502C4 5.95836 4.121 5.58336 4.363 5.25002C4.60433 4.91669 4.91667 4.67502 5.3 4.52502L11.3 2.27502C11.5333 2.19169 11.7667 2.15002 12 2.15002C12.2333 2.15002 12.4667 2.19169 12.7 2.27502L18.7 4.52502C19.0833 4.67502 19.396 4.91669 19.638 5.25002C19.8793 5.58336 20 5.95836 20 6.37502V11.1C20 13.55 19.2917 15.7874 17.875 17.812C16.4583 19.8374 14.6583 21.1917 12.475 21.875C12.3917 21.9084 12.2333 21.925 12 21.925ZM12 19.9C13.7333 19.35 15.1667 18.25 16.3 16.6C17.4333 14.95 18 13.1167 18 11.1V6.37502L12 4.12502L6 6.37502V11.1C6 13.1167 6.56667 14.95 7.7 16.6C8.83333 18.25 10.2667 19.35 12 19.9Z" fill="#171717"/>
</g>
</svg>
