<svg width="24" height="24" viewBox="0 0 24 24" fill="none" xmlns="http://www.w3.org/2000/svg">
<mask id="mask0_61419_4340" style="mask-type:alpha" maskUnits="userSpaceOnUse" x="0" y="0" width="24" height="24">
<rect width="24" height="24" fill="#D9D9D9"/>
</mask>
<g mask="url(#mask0_61419_4340)">
<path d="M16 12.675C15.8833 12.675 15.771 12.6583 15.663 12.625C15.5543 12.5917 15.4583 12.5333 15.375 12.45C13.9417 11.15 12.6877 9.896 11.613 8.688C10.5377 7.47933 10 6.35 10 5.3C10 4.36667 10.3167 3.58333 10.95 2.95C11.5833 2.31667 12.3667 2 13.3 2C13.8333 2 14.3333 2.11233 14.8 2.337C15.2667 2.56233 15.6667 2.86667 16 3.25C16.3333 2.86667 16.7333 2.56233 17.2 2.337C17.6667 2.11233 18.1667 2 18.7 2C19.6333 2 20.4167 2.31667 21.05 2.95C21.6833 3.58333 22 4.36667 22 5.3C22 6.35 21.4627 7.47933 20.388 8.688C19.3127 9.896 18.0583 11.15 16.625 12.45C16.5417 12.5333 16.4457 12.5917 16.337 12.625C16.229 12.6583 16.1167 12.675 16 12.675ZM16 10.3C16.9833 9.36667 17.896 8.43733 18.738 7.512C19.5793 6.58733 20 5.85 20 5.3C20 4.91667 19.8793 4.604 19.638 4.362C19.396 4.12067 19.0833 4 18.7 4C18.4667 4 18.246 4.04567 18.038 4.137C17.8293 4.229 17.65 4.36667 17.5 4.55L16 6.35L14.5 4.55C14.35 4.36667 14.171 4.229 13.963 4.137C13.7543 4.04567 13.5333 4 13.3 4C12.9167 4 12.6043 4.12067 12.363 4.362C12.121 4.604 12 4.91667 12 5.3C12 5.85 12.4207 6.58733 13.262 7.512C14.104 8.43733 15.0167 9.36667 16 10.3ZM13.95 20.4L19.9 18.55C19.8167 18.4 19.696 18.271 19.538 18.163C19.3793 18.0543 19.2 18 19 18H13.95C13.5 18 13.1417 17.9833 12.875 17.95C12.6083 17.9167 12.3333 17.85 12.05 17.75L10.625 17.275C10.3583 17.1917 10.1667 17.025 10.05 16.775C9.93333 16.525 9.91667 16.2667 10 16C10.0833 15.7333 10.246 15.5373 10.488 15.412C10.7293 15.2873 10.9833 15.2667 11.25 15.35L12.3 15.7C12.5833 15.7833 12.9043 15.85 13.263 15.9C13.621 15.95 14.1083 15.9833 14.725 16H15C15 15.8167 14.946 15.6417 14.838 15.475C14.7293 15.3083 14.6 15.2 14.45 15.15L8.6 13H7V18.5L13.95 20.4ZM13.425 22.35L7 20.55C6.86667 20.9833 6.60433 21.3333 6.213 21.6C5.821 21.8667 5.41667 22 5 22H3C2.45 22 1.97933 21.8043 1.588 21.413C1.196 21.021 1 20.55 1 20V13C1 12.45 1.196 11.979 1.588 11.587C1.97933 11.1957 2.45 11 3 11H8.6C8.71667 11 8.83333 11.0123 8.95 11.037C9.06667 11.0623 9.175 11.0917 9.275 11.125L15.15 13.3C15.7 13.5 16.146 13.85 16.488 14.35C16.8293 14.85 17 15.4 17 16H19C19.8333 16 20.5417 16.275 21.125 16.825C21.7083 17.375 22 18.1 22 19C22 19.3667 21.904 19.6543 21.712 19.863C21.5207 20.071 21.225 20.2417 20.825 20.375L14.575 22.325C14.3917 22.3917 14.2 22.425 14 22.425C13.8 22.425 13.6083 22.4 13.425 22.35ZM3 20H5V13H3V20Z" fill="#171717"/>
</g>
</svg>
