<svg width="25" height="25" viewBox="0 0 25 25" fill="none" xmlns="http://www.w3.org/2000/svg">
<path d="M21.4508 18.3359C20.6956 17.8115 19.8006 17.5352 18.8853 17.2996C17.9651 17.0629 17.021 16.9173 16.0425 16.7974C16.1239 16.7003 16.1885 16.623 16.2545 16.5457C17.4864 15.0983 18.5821 13.5844 19.3198 11.9015C19.9122 10.5506 20.2463 9.16794 19.9831 7.71337C19.2482 3.65652 14.1965 1.18729 9.73508 2.70959C6.20512 3.91423 4.30573 7.00557 5.10451 10.224C5.49127 11.7822 6.26128 13.2026 7.20395 14.5637C7.7332 15.3278 8.32141 16.059 8.96156 16.7986C7.90587 16.9262 6.90002 17.0845 5.92155 17.35C5.05187 17.5861 4.19763 17.8564 3.49571 18.3772C2.9412 18.789 2.58392 19.2882 2.70535 19.9475C2.81275 20.5348 3.24934 20.9375 3.79052 21.2666C4.49033 21.6921 5.28701 21.942 6.10475 22.1422C8.06381 22.6211 10.0706 22.8027 12.1019 22.8248C14.4078 22.85 16.6883 22.6858 18.9134 22.1386C19.8406 21.9109 20.7433 21.625 21.4915 21.0772C22.609 20.2591 22.5914 19.1288 21.4501 18.3365L21.4508 18.3359ZM7.61809 12.6405C6.98776 11.5479 6.51397 10.4145 6.35112 9.19192C5.99384 6.51532 8.14804 3.98496 11.2603 3.45275C11.6675 3.38323 12.0774 3.34547 12.349 3.34967C16.1808 3.34308 19.0566 6.0856 18.6466 9.20151C18.4396 10.7735 17.7166 12.1826 16.8273 13.5412C15.7035 15.2583 14.3116 16.8112 12.7898 18.2831C12.5786 18.4869 12.4283 18.4893 12.2241 18.2921C10.4335 16.5595 8.81907 14.7219 7.61879 12.6405H7.61809ZM20.9897 19.981C20.4836 20.379 19.882 20.6043 19.2657 20.7985C17.7671 21.2708 16.2166 21.4739 14.6492 21.5896C13.9361 21.6424 13.2215 21.6591 12.5063 21.6579C10.3282 21.6507 8.1698 21.4841 6.06825 20.8992C5.38318 20.7086 4.71284 20.4773 4.13025 20.0727C3.65505 19.7425 3.65154 19.6196 4.12253 19.2852C4.73951 18.8465 5.45968 18.611 6.19038 18.412C7.4033 18.0812 8.6485 17.9139 9.90143 17.7887C10.0257 17.7761 10.0706 17.8324 10.1303 17.8972C10.3893 18.1782 10.6406 18.4653 10.9066 18.7404C11.8114 19.676 13.1955 19.6718 14.1017 18.732C14.3165 18.5091 14.5341 18.2867 14.7271 18.047C14.8808 17.8564 15.0353 17.7755 15.3076 17.8061C16.7086 17.9625 18.0991 18.1579 19.4356 18.605C19.9943 18.792 20.5397 19.0071 20.9967 19.3763C21.3083 19.6274 21.3083 19.7299 20.9882 19.981H20.9897Z" fill="#545456"/>
<path d="M15.9645 8.95876C15.955 7.45384 14.4923 6.23086 12.7076 6.23708C10.9428 6.24269 9.48975 7.47562 9.48828 8.96747C9.48755 10.4705 10.9472 11.6997 12.7312 11.6972C14.5173 11.6948 15.9733 10.4612 15.9645 8.95876ZM10.8126 8.98303C10.7994 8.10361 11.6642 7.36297 12.7091 7.35675C13.7599 7.35053 14.6254 8.06689 14.6401 8.95503C14.6549 9.83819 13.7982 10.5701 12.7422 10.577C11.6826 10.5832 10.8251 9.87553 10.8119 8.98366L10.8126 8.98303Z" fill="#545456"/>
</svg>
