<svg width="49" height="49" viewBox="0 0 49 49" fill="none" xmlns="http://www.w3.org/2000/svg">
<rect width="48" height="48" transform="translate(0.895508 0.416016)" fill="#14C5A0" fill-opacity="0.5"/>
<mask id="mask0_62070_7036" style="mask-type:alpha" maskUnits="userSpaceOnUse" x="12" y="12" width="25" height="25">
<rect x="12.8955" y="12.416" width="24" height="24" fill="#D9D9D9"/>
</mask>
<g mask="url(#mask0_62070_7036)">
<path d="M14.8955 34.416V16.416C14.8955 15.866 15.0915 15.395 15.4835 15.003C15.8748 14.6117 16.3455 14.416 16.8955 14.416H27.8955C28.4455 14.416 28.9165 14.6117 29.3085 15.003C29.6998 15.395 29.8955 15.866 29.8955 16.416V16.841C29.4955 17.0243 29.1288 17.2493 28.7955 17.516C28.4622 17.7827 28.1622 18.0827 27.8955 18.416V16.416H16.8955V28.416H27.8955V24.416C28.1622 24.7493 28.4622 25.0493 28.7955 25.316C29.1288 25.5827 29.4955 25.8077 29.8955 25.991V28.416C29.8955 28.966 29.6998 29.437 29.3085 29.829C28.9165 30.2203 28.4455 30.416 27.8955 30.416H18.8955L14.8955 34.416ZM18.8955 26.416H22.8955V24.416H18.8955V26.416ZM31.8955 24.416C31.0622 24.416 30.3538 24.1243 29.7705 23.541C29.1872 22.9577 28.8955 22.2493 28.8955 21.416C28.8955 20.5827 29.1872 19.8743 29.7705 19.291C30.3538 18.7077 31.0622 18.416 31.8955 18.416C32.0788 18.416 32.2538 18.4327 32.4205 18.466C32.5872 18.4993 32.7455 18.541 32.8955 18.591V13.416H36.8955V15.416H34.8955V21.416C34.8955 22.2493 34.6038 22.9577 34.0205 23.541C33.4372 24.1243 32.7288 24.416 31.8955 24.416ZM18.8955 23.416H25.8955V21.416H18.8955V23.416ZM18.8955 20.416H25.8955V18.416H18.8955V20.416Z" fill="#363638"/>
</g>
</svg>
