<svg width="32" height="32" viewBox="0 0 32 32" fill="none" xmlns="http://www.w3.org/2000/svg">
<mask id="mask0_61419_4325" style="mask-type:alpha" maskUnits="userSpaceOnUse" x="0" y="0" width="32" height="32">
<rect width="32" height="32" fill="#D9D9D9"/>
</mask>
<g mask="url(#mask0_61419_4325)">
<path d="M7.53358 23.2664C8.84451 22.333 10.1944 21.6053 11.5832 21.0832C12.972 20.561 14.4442 20.3 16 20.3C17.5557 20.3 19.0336 20.561 20.4336 21.0832C21.8336 21.6053 23.189 22.333 24.5 23.2664C25.4109 22.1554 26.072 21 26.4832 19.8C26.8944 18.6 27.1 17.3333 27.1 16C27.1 12.8666 26.0333 10.2333 23.9 8.09998C21.7666 5.96665 19.1333 4.89998 16 4.89998C12.8666 4.89998 10.2333 5.96665 8.09998 8.09998C5.96665 10.2333 4.89998 12.8666 4.89998 16C4.89998 17.3333 5.11118 18.6 5.53358 19.8C5.95545 21 6.62211 22.1554 7.53358 23.2664ZM16 17.1C14.7109 17.1 13.6221 16.6554 12.7336 15.7664C11.8445 14.8778 11.4 13.789 11.4 12.5C11.4 11.2109 11.8445 10.1221 12.7336 9.23358C13.6221 8.34451 14.7109 7.89998 16 7.89998C17.289 7.89998 18.3778 8.34451 19.2664 9.23358C20.1554 10.1221 20.6 11.2109 20.6 12.5C20.6 13.8109 20.1554 14.9053 19.2664 15.7832C18.3778 16.661 17.289 17.1 16 17.1ZM16 29.3336C14.1776 29.3336 12.4554 28.9834 10.8336 28.2832C9.21118 27.5834 7.79438 26.628 6.58318 25.4168C5.37198 24.2056 4.41652 22.7944 3.71678 21.1832C3.01652 19.572 2.66638 17.8442 2.66638 16C2.66638 14.1557 3.01652 12.428 3.71678 10.8168C4.41652 9.20558 5.37198 7.79438 6.58318 6.58318C7.79438 5.37198 9.20558 4.41652 10.8168 3.71678C12.428 3.01652 14.1557 2.66638 16 2.66638C17.8442 2.66638 19.572 3.01652 21.1832 3.71678C22.7944 4.41652 24.2056 5.37198 25.4168 6.58318C26.628 7.79438 27.5834 9.20558 28.2832 10.8168C28.9834 12.428 29.3336 14.1557 29.3336 16C29.3336 17.8224 28.9834 19.5445 28.2832 21.1664C27.5834 22.7888 26.628 24.2056 25.4168 25.4168C24.2056 26.628 22.7944 27.5834 21.1832 28.2832C19.572 28.9834 17.8442 29.3336 16 29.3336ZM16 27.1C17.2 27.1 18.3666 26.9277 19.5 26.5832C20.6333 26.2386 21.7221 25.6554 22.7664 24.8336C21.7221 24.1002 20.6333 23.5336 19.5 23.1336C18.3666 22.7336 17.2 22.5336 16 22.5336C14.8 22.5336 13.6333 22.7336 12.5 23.1336C11.3666 23.5336 10.2778 24.1002 9.23358 24.8336C10.2778 25.6554 11.3666 26.2386 12.5 26.5832C13.6333 26.9277 14.8 27.1 16 27.1ZM16 14.9C16.689 14.9 17.2557 14.6778 17.7 14.2336C18.1442 13.7888 18.3664 13.2109 18.3664 12.5C18.3664 11.8109 18.1442 11.2442 17.7 10.8C17.2557 10.3557 16.689 10.1336 16 10.1336C15.3109 10.1336 14.7442 10.3557 14.3 10.8C13.8557 11.2442 13.6336 11.8109 13.6336 12.5C13.6336 13.2109 13.8557 13.7888 14.3 14.2336C14.7442 14.6778 15.3109 14.9 16 14.9Z" fill="#005B40"/>
</g>
</svg>
