<svg width="12" height="19" viewBox="0 0 12 19" fill="none" xmlns="http://www.w3.org/2000/svg">
<path d="M2.8752 0.765989L11.3002 8.77861C11.4002 8.874 11.4709 8.97734 11.5122 9.08862C11.5542 9.19991 11.5752 9.31915 11.5752 9.44633C11.5752 9.57351 11.5542 9.69275 11.5122 9.80404C11.4709 9.91532 11.4002 10.0187 11.3002 10.114L2.8752 18.1505C2.64186 18.3731 2.3502 18.4844 2.0002 18.4844C1.6502 18.4844 1.3502 18.3651 1.1002 18.1267C0.850196 17.8882 0.725196 17.61 0.725196 17.292C0.725196 16.9741 0.850196 16.6958 1.1002 16.4574L8.4502 9.44633L1.1002 2.43529C0.866862 2.21271 0.750196 1.93863 0.750196 1.61304C0.750196 1.28681 0.875196 1.00446 1.1252 0.765989C1.3752 0.527519 1.66686 0.408283 2.0002 0.408283C2.33353 0.408283 2.6252 0.527519 2.8752 0.765989Z" fill="#005B40"/>
</svg>
