<svg width="24" height="24" viewBox="0 0 24 24" fill="none" xmlns="http://www.w3.org/2000/svg">
<mask id="mask0_61419_4353" style="mask-type:alpha" maskUnits="userSpaceOnUse" x="0" y="0" width="24" height="24">
<rect width="24" height="24" fill="#D9D9D9"/>
</mask>
<g mask="url(#mask0_61419_4353)">
<path d="M14.5 18C13.8 18 13.2083 17.7583 12.725 17.275C12.2417 16.7917 12 16.2 12 15.5C12 14.8 12.2417 14.2083 12.725 13.725C13.2083 13.2417 13.8 13 14.5 13C15.2 13 15.7917 13.2417 16.275 13.725C16.7583 14.2083 17 14.8 17 15.5C17 16.2 16.7583 16.7917 16.275 17.275C15.7917 17.7583 15.2 18 14.5 18ZM5 22C4.45 22 3.979 21.8043 3.587 21.413C3.19567 21.021 3 20.55 3 20V6C3 5.45 3.19567 4.97933 3.587 4.588C3.979 4.196 4.45 4 5 4H6V3C6 2.71667 6.09567 2.479 6.287 2.287C6.479 2.09567 6.71667 2 7 2C7.28333 2 7.521 2.09567 7.713 2.287C7.90433 2.479 8 2.71667 8 3V4H16V3C16 2.71667 16.096 2.479 16.288 2.287C16.4793 2.09567 16.7167 2 17 2C17.2833 2 17.5207 2.09567 17.712 2.287C17.904 2.479 18 2.71667 18 3V4H19C19.55 4 20.021 4.196 20.413 4.588C20.8043 4.97933 21 5.45 21 6V20C21 20.55 20.8043 21.021 20.413 21.413C20.021 21.8043 19.55 22 19 22H5ZM5 20H19V10H5V20ZM5 8H19V6H5V8Z" fill="#171717"/>
</g>
</svg>
