<?xml version="1.0" standalone="no"?>
<!DOCTYPE svg PUBLIC "-//W3C//DTD SVG 20010904//EN"
 "http://www.w3.org/TR/2001/REC-SVG-20010904/DTD/svg10.dtd">
<svg version="1.0" xmlns="http://www.w3.org/2000/svg"
 width="944.000000pt" height="552.000000pt" viewBox="0 0 944.000000 552.000000"
 preserveAspectRatio="xMidYMid meet">

<g transform="translate(0.000000,552.000000) scale(0.100000,-0.100000)"
fill="#000000" stroke="none">
<path d="M2986 5499 c-82 -14 -117 -25 -143 -45 -46 -35 -96 -54 -142 -54 -35
0 -44 -5 -77 -45 -36 -45 -37 -45 -99 -45 -35 0 -86 -8 -115 -17 l-52 -17 -48
27 -48 27 -11 -31 c-6 -17 -36 -64 -66 -103 -46 -61 -55 -79 -55 -114 0 -33
-5 -44 -27 -60 -46 -33 -102 -155 -112 -242 -7 -58 -6 -80 5 -97 22 -35 18
-41 -41 -70 -51 -25 -55 -26 -73 -10 -22 20 -23 19 -66 -55 -20 -37 -33 -48
-51 -48 -30 0 -87 -57 -127 -127 l-30 -53 -33 26 c-36 27 -37 27 -55 -31 -17
-53 -52 -107 -87 -134 -21 -17 -35 -21 -60 -16 -31 6 -33 4 -33 -22 0 -15 11
-46 25 -68 42 -68 35 -98 -77 -348 -41 -92 -44 -129 -20 -223 11 -43 25 -110
31 -149 24 -148 30 -166 67 -181 40 -17 45 -47 12 -65 -13 -6 -25 -13 -27 -15
-2 -2 16 -21 40 -43 36 -31 47 -50 59 -97 13 -53 19 -60 48 -70 50 -16 66 -38
72 -101 l5 -56 69 -39 c86 -49 126 -57 308 -67 124 -7 154 -12 190 -31 30 -16
66 -24 120 -28 70 -4 82 -2 130 23 48 25 59 27 138 23 102 -6 184 4 235 28 36
17 37 19 32 61 -2 25 -21 76 -41 114 -20 38 -34 69 -31 69 17 0 124 -62 144
-84 20 -21 23 -32 18 -69 -8 -55 12 -87 53 -87 16 0 32 -4 35 -10 3 -5 13 -10
21 -10 8 0 126 51 263 112 l249 113 35 70 c19 38 38 85 42 102 13 62 25 45 25
-36 0 -47 4 -81 10 -81 5 0 39 12 75 26 47 19 65 31 65 44 0 10 27 73 61 138
89 176 89 225 3 263 -43 20 -44 21 -44 67 0 51 31 143 104 319 72 171 97 281
105 463 l7 155 31 -65 c36 -75 66 -175 85 -275 17 -92 16 -369 -1 -465 -37
-208 -132 -403 -264 -547 -22 -24 -37 -43 -33 -43 3 0 58 21 121 46 115 46
116 47 158 108 88 130 161 305 241 581 14 48 15 46 8 -70 -7 -113 -6 -455 1
-461 2 -2 26 4 54 13 43 14 52 21 57 45 3 16 35 88 70 161 109 223 147 364
162 595 4 62 10 115 14 117 4 2 20 -51 36 -118 22 -91 29 -146 29 -217 0 -110
-9 -131 -100 -249 -65 -85 -165 -231 -189 -279 -17 -32 -17 -34 1 -28 196 60
435 115 573 131 93 10 110 16 110 33 0 28 -71 155 -111 199 -28 30 -39 52 -39
73 0 17 -9 48 -20 70 -26 50 -25 67 2 76 20 6 17 11 -42 64 l-64 57 27 70 26
71 -24 22 c-23 21 -23 23 -8 76 l16 53 -32 36 c-35 40 -35 40 -19 132 10 62 9
71 -10 109 -18 36 -28 43 -69 53 -26 6 -85 25 -129 42 -68 26 -86 38 -111 72
-37 53 -122 97 -185 97 -42 0 -45 2 -66 45 -17 35 -19 50 -12 71 13 33 13 74
0 74 -6 0 -24 29 -42 64 -26 54 -40 69 -80 91 -42 23 -48 30 -48 59 0 92 -11
125 -55 161 -40 32 -52 36 -180 55 -109 17 -149 28 -190 51 -28 16 -66 29 -83
29 -18 0 -86 -16 -151 -36 -136 -41 -114 -44 -251 38 -41 25 -84 48 -95 51
-11 2 -69 -4 -129 -14z m-182 -249 c8 -36 24 -92 37 -125 16 -44 20 -70 15
-96 -8 -47 -44 -99 -79 -119 -26 -14 -29 -14 -43 4 -24 34 -19 189 10 283 14
43 28 92 32 108 7 34 8 33 28 -55z m452 -240 c37 -173 26 -473 -26 -682 -21
-84 -58 -178 -70 -178 -5 0 -9 41 -9 91 -1 95 -20 159 -54 188 -28 22 -38 82
-28 156 7 49 27 103 72 197 57 118 63 137 67 209 2 43 -1 100 -7 126 -7 26
-14 57 -16 68 -3 11 8 -7 25 -40 16 -33 37 -94 46 -135z m621 -205 c12 -45 14
-83 9 -155 -21 -289 -30 -337 -75 -391 -23 -27 -30 -30 -47 -21 -12 6 -34 39
-50 74 -26 57 -29 73 -29 168 l0 106 44 67 c55 85 64 126 56 267 l-6 115 42
-85 c22 -47 48 -112 56 -145z m-1402 -2 c11 -110 28 -160 68 -197 27 -25 36
-42 41 -82 12 -83 -20 -222 -65 -286 l-22 -30 -45 129 c-43 122 -45 133 -46
243 -1 93 4 133 24 208 13 50 28 92 31 92 4 0 11 -35 14 -77z m1996 -324 c63
-74 84 -123 76 -179 -10 -74 -139 -346 -158 -334 -16 9 -10 40 20 100 71 145
67 231 -26 514 -3 8 3 4 13 -10 10 -14 44 -55 75 -91z m-2461 -99 c-61 -172
-79 -281 -62 -373 7 -35 12 -80 12 -99 0 -40 -18 -98 -30 -98 -11 0 -64 110
-80 166 -20 67 -9 189 22 257 23 49 176 287 184 287 2 0 -19 -63 -46 -140z
m1411 -232 c-6 -51 -10 -151 -8 -223 2 -121 0 -133 -23 -179 -27 -54 -100
-123 -138 -133 -61 -15 -75 38 -43 156 12 42 28 104 36 139 9 39 32 90 58 130
24 37 61 100 82 140 21 40 40 70 43 68 2 -3 0 -47 -7 -98z m-1103 -33 c6 -60
23 -150 37 -200 32 -111 129 -316 192 -404 63 -88 82 -146 83 -252 0 -91 -18
-168 -49 -208 l-19 -24 -16 54 c-8 30 -34 86 -57 124 -92 157 -133 257 -171
415 -17 71 -21 131 -25 355 -5 283 5 339 25 140z m455 45 c26 -23 44 -56 75
-139 47 -125 58 -202 43 -285 -10 -53 -37 -114 -46 -104 -2 2 -10 36 -19 75
-20 96 -37 126 -101 173 -30 22 -59 49 -65 60 -14 27 -14 152 0 195 20 62 61
71 113 25z m-1028 -411 c30 -119 66 -223 141 -403 41 -98 73 -180 72 -181 -2
-2 -57 62 -123 141 -129 156 -220 294 -231 352 -14 71 36 325 74 382 16 24 17
22 34 -101 9 -69 24 -155 33 -190z m1842 -131 c8 -139 -6 -204 -72 -353 -29
-66 -63 -146 -75 -178 -22 -59 -82 -143 -122 -171 -36 -26 -65 -20 -84 16 -14
26 -16 51 -11 143 9 174 27 212 143 306 85 70 122 133 160 275 14 55 29 103
32 108 11 19 24 -42 29 -146z m-1527 -15 c39 -197 93 -328 215 -523 106 -168
146 -258 153 -337 5 -64 -3 -78 -29 -47 -19 23 -77 49 -141 63 -154 33 -184
110 -207 532 -11 203 -14 369 -7 369 3 0 10 -26 16 -57z m1011 -64 c17 -107 6
-258 -24 -344 -39 -111 -85 -205 -100 -205 -35 0 -74 160 -64 265 7 77 21 107
57 129 32 18 63 89 75 171 16 112 37 106 56 -16z"/>
<path d="M5231 3289 c-270 -24 -610 -112 -1004 -261 -252 -95 -535 -216 -1112
-478 -928 -421 -1436 -603 -1908 -684 -184 -32 -415 -50 -547 -43 -101 6 -103
6 -65 -9 85 -31 241 -56 395 -61 256 -9 501 23 840 109 107 27 205 52 218 55
21 5 22 3 22 -57 0 -59 1 -62 23 -57 12 3 59 13 104 22 l82 18 3 75 3 74 168
59 167 58 0 -100 c0 -54 2 -99 4 -99 4 0 142 27 184 36 21 4 22 8 22 123 l0
118 163 62 c89 33 165 61 170 61 4 0 7 -67 7 -149 l0 -150 38 6 c20 3 66 11
102 17 l65 12 3 176 c2 156 4 177 20 183 86 33 304 115 307 115 3 0 5 -95 5
-211 l0 -212 48 7 c26 4 73 9 105 13 l57 6 0 232 c0 187 3 235 14 244 13 11
300 111 318 111 4 0 8 -122 8 -271 l0 -272 68 6 c37 4 84 7 105 7 l37 0 0 299
0 300 53 15 c72 21 259 66 275 66 9 0 12 -72 12 -326 l0 -327 77 7 c42 3 89 6
104 6 l29 0 2 343 3 342 90 12 c50 6 123 12 162 12 l73 1 2 -352 3 -353 108
-3 107 -3 0 356 c0 214 4 355 9 355 20 0 304 -51 312 -56 5 -3 9 -155 9 -339
0 -184 3 -336 8 -338 4 -3 51 -8 105 -12 l97 -7 0 314 c0 173 3 317 6 321 7 6
185 -56 277 -96 l57 -26 0 -275 c0 -152 3 -276 8 -276 7 0 112 -16 170 -25
l32 -6 0 236 c0 129 4 235 8 235 9 0 218 -118 290 -164 l42 -26 0 -170 c0 -94
2 -170 4 -170 2 0 48 -9 101 -20 53 -11 99 -20 101 -20 2 0 4 56 4 125 0 69 3
125 6 125 4 0 45 -22 93 -49 47 -26 119 -65 159 -85 l72 -36 0 -79 c0 -67 3
-80 18 -85 62 -19 169 -46 179 -46 9 0 13 16 13 48 0 27 2 51 5 54 3 3 76 -18
163 -48 259 -87 538 -138 809 -148 70 -3 119 -3 108 0 -11 3 -72 17 -135 31
-391 85 -782 272 -1280 612 -572 391 -686 465 -880 569 -212 113 -467 204
-707 251 -246 49 -390 59 -602 40z"/>
<path d="M453 1480 c-145 -30 -253 -162 -255 -310 -1 -132 61 -237 177 -298
44 -24 61 -27 145 -27 88 0 99 2 150 31 94 53 150 152 150 266 l0 48 -150 0
-150 0 0 -45 0 -45 101 0 101 0 -7 -27 c-32 -133 -197 -181 -326 -96 -95 62
-124 197 -66 296 70 119 210 148 330 69 l39 -26 24 29 c31 39 30 49 -6 75 -74
53 -176 76 -257 60z"/>
<path d="M2471 1242 c-63 -136 -129 -280 -147 -319 l-33 -73 53 0 53 0 17 45
18 45 152 0 152 0 22 -45 c21 -44 22 -45 72 -45 27 0 50 2 50 4 0 4 -274 597
-286 619 -7 13 -36 -41 -123 -231z m177 -99 l50 -113 -110 0 c-101 0 -110 1
-103 18 30 79 100 221 105 215 4 -5 30 -59 58 -120z"/>
<path d="M4847 1476 c-122 -34 -175 -168 -101 -256 15 -17 66 -49 122 -76 113
-53 152 -86 152 -126 0 -88 -156 -113 -235 -37 l-31 29 -36 -26 c-43 -31 -41
-42 16 -92 43 -37 91 -52 172 -52 128 0 221 85 211 193 -7 79 -53 123 -187
182 -93 40 -120 61 -120 93 1 80 115 112 184 51 l35 -30 31 22 c36 27 37 38 6
72 -51 55 -137 76 -219 53z"/>
<path d="M7755 1187 c-76 -166 -142 -310 -147 -319 -8 -16 -3 -18 44 -18 l53
0 18 45 19 45 152 0 152 0 22 -45 c22 -45 22 -45 73 -45 37 0 50 3 46 13 -12
27 -288 621 -290 623 -2 2 -65 -133 -142 -299z m196 -33 c27 -59 49 -110 49
-115 0 -5 -47 -9 -105 -9 -58 0 -105 2 -105 5 0 13 103 235 108 231 2 -3 27
-53 53 -112z"/>
<path d="M7 1473 c-4 -3 -7 -145 -7 -315 l0 -308 50 0 50 0 0 315 0 315 -43 0
c-24 0 -47 -3 -50 -7z"/>
<path d="M918 1474 c-10 -9 -10 -303 -1 -487 l6 -137 44 0 43 0 0 120 0 120
43 0 42 -1 80 -117 80 -117 58 -3 c31 -2 57 0 57 3 0 3 -38 58 -86 123 -74
101 -83 118 -68 127 92 56 127 151 89 243 -40 93 -100 124 -260 130 -66 2
-123 1 -127 -4z m273 -132 c42 -46 40 -93 -5 -138 -32 -32 -38 -34 -105 -34
l-71 0 0 106 0 106 76 -4 c71 -3 78 -6 105 -36z"/>
<path d="M1450 1165 l0 -315 185 0 185 0 0 45 0 45 -135 0 -135 0 0 90 0 90
115 0 115 0 0 50 0 50 -115 0 -115 0 0 80 0 80 135 0 135 0 0 50 0 50 -185 0
-185 0 0 -315z"/>
<path d="M2178 1253 c-3 -258 -5 -264 -84 -303 -48 -24 -82 -25 -129 -5 l-35
14 -20 -39 c-11 -22 -20 -41 -20 -44 0 -2 18 -11 40 -20 49 -20 149 -21 194
-2 46 19 104 72 129 120 21 39 22 53 22 271 l0 230 -47 3 -47 3 -3 -228z"/>
<path d="M3197 1473 c-4 -3 -7 -145 -7 -315 l0 -308 50 0 50 0 0 110 0 110 85
0 c72 0 94 4 136 25 176 90 130 337 -70 375 -60 11 -234 14 -244 3z m271 -113
c18 -11 40 -36 48 -56 14 -32 13 -39 -3 -72 -25 -51 -71 -72 -155 -72 l-68 0
0 110 0 110 73 0 c55 0 80 -5 105 -20z"/>
<path d="M3708 1474 c-5 -4 -8 -146 -8 -316 l0 -308 50 0 50 0 0 120 0 120 40
0 c39 0 41 -2 115 -107 42 -60 80 -114 84 -121 5 -9 25 -12 65 -10 l57 3 -86
120 c-76 105 -84 121 -70 130 95 56 129 156 86 250 -41 88 -101 117 -261 123
-63 2 -118 1 -122 -4z m273 -132 c48 -54 35 -123 -31 -157 -16 -8 -55 -15 -90
-15 l-60 0 0 106 0 106 76 -4 c71 -3 78 -6 105 -36z"/>
<path d="M4240 1165 l0 -315 185 0 185 0 0 45 0 44 -137 3 -138 3 -3 88 -3 87
121 0 120 0 0 50 0 50 -120 0 -120 0 0 80 0 80 140 0 140 0 0 50 0 50 -185 0
-185 0 0 -315z"/>
<path d="M5210 1165 l0 -315 142 0 c165 0 211 15 254 80 64 96 28 227 -71 260
l-33 11 23 23 c51 51 41 151 -19 204 -42 36 -107 52 -216 52 l-80 0 0 -315z
m235 190 c45 -44 24 -115 -38 -130 -13 -4 -41 -5 -63 -3 l-39 3 -3 78 -3 77
61 0 c51 0 65 -4 85 -25z m45 -233 c49 -24 66 -63 48 -110 -20 -54 -64 -73
-158 -70 l-75 3 -3 84 c-2 46 -1 90 2 98 8 20 142 17 186 -5z"/>
<path d="M5720 1165 l0 -315 50 0 50 0 0 315 0 315 -50 0 -50 0 0 -315z"/>
<path d="M5900 1430 l0 -50 85 0 85 0 0 -265 0 -265 50 0 50 0 0 265 0 265 80
0 80 0 0 50 0 50 -215 0 -215 0 0 -50z"/>
<path d="M6420 1165 l0 -315 185 0 185 0 0 45 0 45 -140 0 -140 0 0 90 0 90
120 0 120 0 0 50 0 50 -120 0 -120 0 0 80 0 80 141 0 140 0 -3 48 -3 47 -182
3 -183 2 0 -315z"/>
<path d="M6898 1474 c-5 -4 -8 -146 -8 -316 l0 -308 50 0 50 0 0 120 0 120 43
0 42 -1 80 -119 80 -120 58 0 c31 0 57 3 57 6 0 3 -24 38 -53 77 -121 163
-120 161 -101 172 92 56 127 151 89 243 -40 93 -100 124 -260 130 -66 2 -123
1 -127 -4z m273 -132 c20 -22 29 -43 29 -67 0 -24 -9 -45 -29 -67 -27 -30 -34
-33 -105 -36 l-76 -4 0 107 0 107 76 -4 c71 -3 78 -6 105 -36z"/>
<path d="M7430 1165 l0 -315 45 0 45 0 0 315 0 315 -45 0 -45 0 0 -315z"/>
<path d="M8270 1168 l0 -318 45 0 45 0 0 201 c0 110 4 199 9 197 4 -1 77 -75
161 -163 84 -88 172 -180 196 -205 l44 -45 0 323 0 323 -47 -3 -48 -3 -3 -203
-2 -203 -133 138 c-72 76 -162 170 -199 208 l-68 70 0 -317z"/>
<path d="M8998 1182 c-76 -164 -140 -306 -144 -315 -5 -15 1 -17 45 -17 52 0
52 0 71 45 l19 45 153 0 153 0 18 -45 19 -45 53 0 53 0 -146 315 c-80 173
-148 315 -151 315 -3 0 -68 -134 -143 -298z m201 -31 c28 -62 51 -115 51 -117
0 -2 -49 -4 -109 -4 l-110 0 46 103 c50 114 63 140 67 135 2 -1 26 -54 55
-117z"/>
<path d="M1262 589 c-76 -15 -138 -64 -167 -131 -19 -46 -20 -148 -2 -191 59
-139 232 -184 371 -97 25 16 46 34 46 39 0 19 -34 21 -54 2 -77 -70 -208 -68
-280 4 -78 78 -83 192 -13 272 76 87 213 97 294 21 14 -13 28 -18 39 -14 15 6
14 10 -11 36 -47 49 -143 75 -223 59z"/>
<path d="M3950 370 c0 -223 1 -230 20 -230 19 0 20 7 20 230 0 223 -1 230 -20
230 -19 0 -20 -7 -20 -230z"/>
<path d="M4680 505 c0 -94 -6 -109 -31 -79 -40 48 -143 60 -199 22 -51 -35
-73 -71 -78 -130 -5 -68 14 -117 62 -153 61 -47 167 -44 211 5 24 27 35 25 35
-5 0 -16 6 -25 15 -25 13 0 15 32 15 230 0 198 -2 230 -15 230 -12 0 -15 -17
-15 -95z m-69 -88 c19 -12 42 -39 53 -60 59 -121 -77 -247 -191 -177 -46 28
-67 65 -67 120 0 111 116 177 205 117z"/>
<path d="M6690 370 c0 -198 2 -230 15 -230 13 0 15 32 15 230 0 198 -2 230
-15 230 -13 0 -15 -32 -15 -230z"/>
<path d="M2798 528 c-3 -60 -4 -63 -30 -66 -38 -4 -36 -22 2 -22 l30 0 0 -150
c0 -125 2 -150 15 -150 12 0 15 25 17 148 l3 147 33 3 c17 2 32 7 32 12 0 5
-15 10 -32 12 -33 3 -33 3 -36 66 -2 45 -7 62 -17 62 -10 0 -15 -17 -17 -62z"/>
<path d="M5650 360 c0 -213 1 -220 20 -220 19 0 20 7 20 105 l0 105 59 0 c32
0 72 3 90 6 97 20 121 154 37 205 -25 15 -51 19 -128 19 l-98 0 0 -220z m216
157 c30 -35 30 -68 0 -103 -21 -25 -29 -28 -97 -28 l-74 -1 -3 84 -3 83 77 -4
c69 -3 79 -6 100 -31z"/>
<path d="M1790 448 c-59 -41 -75 -72 -75 -147 0 -59 4 -72 29 -105 49 -64 143
-85 215 -48 46 23 81 70 62 82 -10 6 -20 1 -34 -16 -46 -60 -134 -72 -188 -27
-29 25 -59 77 -59 103 0 6 55 10 156 10 l156 0 -7 33 c-10 48 -37 89 -75 114
-46 32 -134 32 -180 1z m148 -22 c33 -17 57 -44 66 -73 l7 -23 -131 0 -131 0
7 23 c21 70 114 108 182 73z"/>
<path d="M2350 453 c-14 -9 -32 -24 -40 -32 -13 -13 -15 -12 -18 12 -2 15 -10
27 -18 27 -12 0 -14 -28 -14 -160 0 -136 2 -160 15 -160 12 0 15 16 15 88 0
48 5 104 10 124 23 81 129 117 181 62 22 -24 24 -35 28 -150 2 -98 6 -124 17
-124 11 0 14 24 14 120 0 129 -9 164 -52 194 -30 21 -107 20 -138 -1z"/>
<path d="M3147 443 c-26 -27 -27 -27 -27 -5 0 15 -6 22 -20 22 -19 0 -20 -7
-20 -160 0 -153 1 -160 20 -160 19 0 20 7 20 110 0 142 22 190 88 190 11 0 22
7 26 15 10 28 -56 19 -87 -12z"/>
<path d="M3494 460 c-35 -14 -83 -69 -94 -108 -12 -46 -12 -58 0 -102 31 -111
171 -156 263 -86 l37 28 0 -26 c0 -16 5 -26 15 -26 13 0 15 24 15 160 0 136
-2 160 -15 160 -9 0 -15 -9 -15 -25 0 -14 -4 -25 -10 -25 -5 0 -10 3 -10 8 0
4 -15 17 -33 30 -35 23 -110 29 -153 12z m137 -35 c65 -34 90 -135 49 -202
-51 -84 -177 -84 -229 0 -75 121 55 266 180 202z"/>
<path d="M4999 447 c-41 -27 -79 -98 -79 -147 1 -50 32 -113 70 -140 39 -27
113 -37 162 -21 47 15 93 64 84 88 -7 16 -10 16 -30 -9 -33 -37 -78 -58 -125
-58 -54 0 -121 60 -121 108 l0 32 151 0 152 0 -6 36 c-7 43 -47 99 -87 119
-45 23 -130 19 -171 -8z m151 -22 c32 -16 70 -61 70 -81 0 -11 -27 -14 -130
-14 -71 0 -130 2 -130 5 0 4 7 19 15 36 32 61 113 86 175 54z"/>
<path d="M6214 451 c-113 -69 -118 -215 -10 -295 21 -16 42 -21 90 -21 53 0
68 4 99 28 l37 28 0 -25 c0 -19 5 -26 20 -26 19 0 20 7 20 160 0 153 -1 160
-20 160 -15 0 -20 -7 -20 -27 l0 -26 -22 20 c-13 11 -33 26 -45 32 -34 17
-114 13 -149 -8z m146 -26 c67 -35 96 -138 56 -199 -76 -117 -256 -64 -256 74
0 101 112 171 200 125z"/>
<path d="M7023 450 c-18 -11 -33 -24 -33 -30 0 -5 -4 -10 -10 -10 -5 0 -10 11
-10 25 0 16 -6 25 -15 25 -13 0 -15 -24 -15 -160 0 -136 2 -160 15 -160 12 0
15 15 15 78 1 115 13 162 49 194 34 31 84 37 113 14 29 -22 38 -63 38 -177 0
-90 3 -109 15 -109 12 0 15 16 15 81 0 107 15 163 52 194 32 27 82 33 109 12
32 -24 39 -56 39 -171 0 -112 1 -116 22 -116 21 0 21 2 15 124 -8 170 -28 206
-114 206 -39 0 -81 -22 -109 -56 -12 -15 -16 -16 -21 -5 -3 8 -16 25 -29 38
-30 30 -96 31 -141 3z"/>
<path d="M7735 454 c-44 -23 -65 -44 -81 -83 -31 -74 -6 -167 57 -211 57 -42
162 -36 204 10 24 27 35 25 35 -5 0 -16 6 -25 15 -25 13 0 15 24 15 160 0 136
-2 160 -15 160 -9 0 -15 -9 -15 -25 0 -29 -12 -32 -31 -9 -36 44 -127 58 -184
28z m143 -34 c117 -72 83 -242 -53 -257 -107 -13 -181 91 -136 192 35 78 119
108 189 65z"/>
<path d="M8215 445 c-28 -27 -32 -70 -11 -101 8 -12 40 -36 70 -54 62 -38 74
-64 47 -100 -22 -30 -64 -37 -97 -15 -24 15 -44 13 -44 -5 0 -5 13 -16 30 -25
75 -39 155 -1 155 73 0 45 -21 75 -70 99 -42 21 -75 53 -75 73 0 43 65 64 107
35 31 -22 43 2 13 27 -33 27 -95 24 -125 -7z"/>
</g>
</svg>
