<?xml version="1.0" standalone="no"?>
<!DOCTYPE svg PUBLIC "-//W3C//DTD SVG 20010904//EN"
 "http://www.w3.org/TR/2001/REC-SVG-20010904/DTD/svg10.dtd">
<svg version="1.0" xmlns="http://www.w3.org/2000/svg"
 width="2105.000000pt" height="951.000000pt" viewBox="0 0 2105.000000 951.000000"
 preserveAspectRatio="xMidYMid meet">

<g transform="translate(0.000000,951.000000) scale(0.100000,-0.100000)"
fill="#000000" stroke="none">
<path d="M6258 9465 c-273 -43 -328 -60 -404 -126 -95 -84 -218 -129 -356
-129 -88 0 -129 -29 -200 -139 -23 -37 -44 -68 -46 -71 -2 -3 -83 -7 -180 -11
-169 -5 -181 -7 -267 -38 -144 -53 -148 -53 -268 18 -57 34 -109 61 -115 61
-6 0 -20 -31 -32 -68 -22 -75 -42 -107 -159 -247 -42 -51 -93 -121 -114 -156
-38 -63 -38 -66 -33 -140 3 -42 6 -82 8 -89 2 -7 -23 -28 -55 -46 -32 -19 -67
-44 -76 -56 -10 -12 -55 -90 -100 -173 -90 -168 -113 -239 -130 -410 -17 -168
-15 -205 13 -234 13 -15 31 -38 40 -53 l17 -26 -68 -38 c-37 -21 -99 -55 -136
-76 -38 -21 -71 -38 -74 -38 -2 0 -26 18 -52 40 -26 22 -50 40 -54 40 -8 0
-56 -74 -123 -189 -52 -88 -80 -111 -137 -111 -80 0 -238 -174 -336 -371 l-40
-79 -84 70 -85 69 -37 -107 c-80 -232 -184 -380 -291 -416 -48 -15 -55 -16
-95 -1 -89 33 -82 38 -78 -56 4 -89 3 -87 92 -223 30 -46 32 -55 32 -135 -1
-72 -5 -97 -29 -151 -15 -36 -64 -152 -107 -258 -43 -106 -101 -239 -129 -295
-96 -195 -102 -318 -30 -577 16 -58 43 -188 60 -290 37 -218 64 -349 88 -421
l18 -51 76 -24 c74 -23 76 -25 82 -62 3 -20 6 -43 6 -49 0 -7 -32 -29 -72 -49
l-72 -36 46 -42 c25 -22 71 -63 102 -89 69 -59 82 -83 106 -200 11 -51 29
-113 41 -138 22 -49 41 -59 109 -59 48 0 61 -10 112 -88 l49 -76 -3 -103 c-2
-91 0 -106 18 -122 19 -20 217 -132 312 -177 107 -52 294 -77 692 -94 129 -5
260 -16 290 -23 30 -8 91 -33 135 -55 101 -53 150 -62 345 -62 172 0 152 -5
305 80 l59 34 321 1 c358 1 376 3 515 73 l75 37 3 50 c7 110 -35 232 -144 415
-35 60 -64 111 -64 115 0 11 280 -136 330 -174 28 -21 62 -54 76 -72 24 -32
25 -38 18 -109 -11 -114 -10 -152 5 -188 18 -42 41 -54 120 -63 48 -5 74 -14
108 -39 l46 -31 496 224 c273 124 555 251 626 282 72 32 138 67 148 78 27 31
127 223 160 306 16 42 40 118 53 170 13 52 26 96 28 98 2 2 7 -63 11 -144 4
-81 10 -187 14 -235 l6 -86 179 77 180 78 12 59 c20 93 38 137 144 334 123
229 146 279 166 363 20 80 13 139 -22 194 -37 56 -95 91 -226 136 -15 5 -18
19 -18 91 0 175 39 307 202 686 254 589 335 961 326 1492 -2 155 0 194 9 186
22 -18 120 -229 158 -338 73 -211 128 -463 156 -710 20 -167 17 -600 -4 -770
-59 -465 -188 -844 -402 -1175 -112 -174 -314 -430 -383 -486 -15 -12 -20 -20
-12 -17 8 4 132 54 275 112 143 59 280 114 305 124 37 15 55 33 106 105 265
373 472 853 609 1407 35 141 52 197 64 212 8 10 4 -117 -15 -397 -10 -154 -15
-334 -12 -500 1 -143 3 -324 2 -402 0 -79 2 -143 5 -143 3 0 68 21 143 46
l137 45 11 52 c17 82 75 219 170 402 116 225 180 374 250 585 100 299 128 457
160 890 29 387 28 384 69 237 130 -471 166 -740 126 -932 -25 -118 -89 -230
-270 -470 -92 -121 -197 -265 -234 -320 -60 -89 -271 -430 -271 -439 0 -2 57
14 128 36 549 169 1076 280 1580 333 l62 7 0 45 c0 39 -16 76 -97 231 -88 166
-107 195 -185 279 -93 99 -94 100 -102 208 -5 58 -14 86 -56 167 -27 54 -50
103 -50 110 0 8 25 28 55 46 30 18 55 37 55 42 0 5 -35 37 -77 71 -43 35 -112
94 -154 131 l-77 68 64 172 63 172 -37 44 c-83 97 -79 75 -37 202 23 73 34
122 30 140 -3 14 -31 51 -61 81 -31 30 -62 66 -70 81 -20 39 -17 102 12 240
34 156 30 200 -26 301 -22 41 -47 81 -55 87 -8 6 -74 27 -147 45 -125 31 -445
148 -495 181 -13 8 -41 44 -64 79 -55 87 -106 129 -238 198 -103 53 -116 57
-179 57 -37 0 -91 3 -121 7 l-54 6 -43 92 c-24 51 -44 104 -44 119 0 14 9 58
19 98 37 140 37 141 -11 163 -40 19 -45 27 -101 150 -32 71 -70 142 -85 158
-15 16 -71 51 -124 78 -54 27 -99 56 -102 66 -3 10 -10 86 -16 168 -6 83 -13
164 -16 180 -7 35 -36 68 -124 140 -80 65 -111 80 -175 89 -27 4 -169 25 -315
46 l-265 40 -153 77 c-201 102 -221 103 -417 40 -411 -134 -477 -147 -544
-113 -18 10 -105 63 -194 119 -228 142 -278 167 -335 166 -26 -1 -140 -16
-254 -34z m-508 -569 c24 -144 38 -194 106 -356 44 -104 48 -122 47 -190 -2
-188 -139 -380 -272 -380 -49 0 -58 41 -66 305 -7 252 -11 228 59 417 19 54
45 146 56 205 32 166 30 160 41 142 5 -9 18 -74 29 -143z m1025 -296 c87 -194
125 -340 162 -618 23 -177 23 -611 0 -822 -47 -422 -132 -800 -223 -983 -63
-127 -61 -130 -67 85 -9 299 -31 386 -124 491 -74 84 -95 131 -101 237 -11
195 35 365 168 626 173 336 194 407 194 639 1 147 -2 171 -32 291 -29 120 -39
174 -28 163 2 -2 25 -51 51 -109z m1575 -600 c130 -284 153 -473 105 -856 -14
-109 -25 -239 -25 -289 0 -163 -30 -286 -102 -428 -45 -86 -86 -127 -128 -127
-79 0 -190 215 -236 458 -12 64 -15 121 -11 217 7 177 25 228 144 388 108 147
128 221 127 467 0 102 -5 241 -11 309 -6 69 -9 131 -6 138 6 14 42 -56 143
-277z m-3426 -102 c3 -13 13 -93 21 -178 27 -274 64 -400 131 -455 124 -100
133 -120 141 -310 11 -254 -55 -504 -174 -668 -20 -26 -37 -46 -40 -43 -6 6
-146 414 -184 536 -47 152 -62 263 -56 435 3 83 12 191 21 240 18 102 118 465
127 465 4 0 9 -10 13 -22z m4870 -832 c13 -17 68 -80 121 -141 113 -127 158
-191 185 -263 47 -122 34 -219 -56 -445 -68 -173 -207 -459 -265 -547 l-42
-65 -18 40 c-10 22 -19 46 -19 54 0 8 31 78 70 155 43 87 80 179 97 241 25 91
28 116 28 275 0 213 -9 263 -105 555 -38 116 -71 226 -75 245 -6 33 -4 32 24
-19 17 -30 42 -68 55 -85z m-5908 -114 c-8 -28 -46 -136 -84 -239 -123 -331
-160 -465 -183 -668 -13 -118 -7 -232 22 -392 26 -147 22 -231 -16 -342 l-29
-81 -24 22 c-34 32 -125 224 -166 348 -45 141 -60 239 -53 358 12 205 91 387
303 697 75 110 159 235 186 278 28 42 53 75 55 73 2 -2 -2 -27 -11 -54z m3425
-840 c-26 -207 -27 -256 -17 -567 9 -279 3 -331 -54 -449 -85 -176 -268 -339
-396 -354 -40 -4 -47 -1 -80 32 l-37 37 6 87 c3 60 16 121 40 197 19 61 49
178 67 259 34 160 63 263 87 311 9 17 57 93 108 170 50 77 136 224 191 328
117 220 118 219 85 -51z m-2770 -36 c40 -431 137 -761 346 -1180 90 -181 131
-249 243 -411 115 -165 132 -197 164 -307 71 -246 57 -551 -34 -746 -31 -67
-88 -152 -102 -152 -4 0 -8 15 -8 33 0 97 -64 252 -188 456 -267 441 -393 807
-459 1331 -15 121 -18 220 -18 600 0 464 9 658 27 610 5 -14 18 -119 29 -234z
m1105 78 c91 -52 130 -117 230 -384 101 -272 114 -326 121 -490 8 -205 -29
-380 -97 -462 l-28 -33 -11 27 c-6 15 -20 83 -31 150 -44 265 -91 345 -272
464 -154 101 -184 164 -182 384 1 201 44 323 127 361 49 22 83 18 143 -17z
m-2602 -665 c37 -254 109 -553 195 -814 52 -157 179 -471 417 -1032 8 -18 12
-33 10 -33 -4 0 -400 470 -529 629 -187 229 -350 517 -370 652 -12 88 4 236
53 479 49 242 114 434 168 494 16 17 18 10 28 -121 7 -77 19 -191 28 -254z
m4635 -377 c35 -66 63 -520 42 -688 -23 -185 -56 -284 -201 -599 -54 -115
-114 -255 -134 -310 -20 -55 -44 -120 -53 -144 -40 -110 -233 -350 -315 -392
-180 -92 -257 153 -192 611 20 142 39 212 80 297 44 92 112 165 240 259 244
178 321 309 445 761 28 103 53 196 56 206 7 22 20 22 32 -1z m-3759 -447 c104
-496 210 -747 525 -1250 330 -526 423 -766 379 -982 -4 -20 -12 -16 -97 48
-105 79 -155 101 -286 123 -315 55 -425 188 -491 591 -47 291 -117 1747 -81
1685 5 -8 28 -105 51 -215z m2477 73 c54 -159 76 -618 39 -811 -32 -165 -125
-416 -242 -649 -50 -99 -57 -108 -72 -96 -125 98 -198 529 -136 807 21 94 40
126 95 162 68 43 124 110 150 178 12 31 37 133 55 226 36 183 59 258 78 252 6
-2 21 -33 33 -69z"/>
<path d="M12005 3953 c-742 -49 -1585 -253 -2595 -630 -677 -252 -1274 -507
-2675 -1143 -1149 -521 -1709 -765 -2290 -995 -1304 -517 -2309 -789 -3255
-881 -190 -19 -744 -25 -965 -12 -113 7 -118 7 -85 -8 51 -22 248 -78 385
-109 138 -31 326 -59 505 -76 159 -15 601 -15 790 0 566 45 1222 172 1917 372
94 27 179 49 187 49 14 0 16 -21 16 -156 l0 -156 23 6 c12 3 121 26 242 51
121 24 230 47 243 50 22 5 22 7 22 193 l0 187 168 56 c92 32 277 96 411 143
134 47 245 86 247 86 2 0 4 -110 4 -245 0 -189 3 -245 12 -245 15 0 485 89
510 96 16 5 18 30 20 302 l3 296 410 157 410 156 3 -378 c1 -209 6 -379 10
-379 10 0 480 79 510 85 l22 5 0 439 c0 409 1 439 18 446 203 79 803 305 808
305 2 0 4 -238 4 -530 0 -478 2 -530 16 -530 20 0 461 59 492 65 l22 5 0 593
0 594 93 32 c50 18 237 81 415 141 l322 109 0 -685 0 -684 23 0 c29 0 465 40
494 46 l23 4 2 742 3 742 175 47 c151 42 628 159 644 159 3 0 6 -367 6 -816
l0 -817 135 7 c74 3 196 9 270 12 l135 7 0 853 0 852 28 6 c110 23 517 63 702
68 l95 3 3 -887 2 -888 98 0 c55 0 174 -3 265 -7 l167 -6 0 886 0 887 24 0
c53 0 263 -32 524 -80 150 -27 275 -50 277 -50 3 0 5 -382 5 -850 0 -679 3
-850 13 -850 7 0 114 -9 237 -20 124 -11 240 -20 258 -20 l32 0 0 800 0 799
193 -65 c190 -65 425 -156 565 -220 l72 -33 0 -689 0 -688 238 -34 c130 -18
252 -35 270 -38 l32 -4 0 591 c0 325 3 591 6 591 11 0 372 -204 599 -338 l220
-130 3 -429 2 -429 263 -55 262 -54 3 322 c1 178 4 323 6 323 2 0 73 -40 157
-88 177 -101 454 -251 581 -313 l88 -43 2 -200 3 -200 268 -71 267 -71 0 149
c0 138 1 149 18 142 745 -288 1398 -437 2188 -499 241 -20 675 -30 594 -15
-533 100 -888 194 -1297 345 -628 231 -1208 531 -1925 995 -214 139 -369 244
-903 614 -870 603 -1280 863 -1750 1106 -502 260 -1013 452 -1502 564 -146 33
-588 114 -733 134 -191 27 -602 39 -825 24z"/>
<path d="M11413 2293 c9 -2 25 -2 35 0 9 3 1 5 -18 5 -19 0 -27 -2 -17 -5z"/>
</g>
</svg>
