<svg width="32" height="32" viewBox="0 0 32 32" fill="none" xmlns="http://www.w3.org/2000/svg">
<mask id="mask0_61599_2805" style="mask-type:alpha" maskUnits="userSpaceOnUse" x="0" y="0" width="32" height="32">
<rect width="32" height="32" fill="#D9D9D9"/>
</mask>
<g mask="url(#mask0_61599_2805)">
<path d="M2.66675 29.333V5.33301C2.66675 4.59967 2.92808 3.97167 3.45075 3.44901C3.97253 2.92723 4.60008 2.66634 5.33341 2.66634H20.0001C20.7334 2.66634 21.3614 2.92723 21.8841 3.44901C22.4059 3.97167 22.6667 4.59967 22.6667 5.33301V5.89967C22.1334 6.14412 21.6445 6.44412 21.2001 6.79967C20.7556 7.15523 20.3556 7.55523 20.0001 7.99967V5.33301H5.33341V21.5663L5.56675 21.333H20.0001V15.9997C20.3556 16.4441 20.7556 16.8441 21.2001 17.1997C21.6445 17.5552 22.1334 17.8552 22.6667 18.0997V21.333C22.6667 22.0663 22.4059 22.6943 21.8841 23.217C21.3614 23.7388 20.7334 23.9997 20.0001 23.9997H8.00008L2.66675 29.333ZM8.00008 18.6663H13.3334V15.9997H8.00008V18.6663ZM25.3334 15.9997C24.2223 15.9997 23.2779 15.6108 22.5001 14.833C21.7223 14.0552 21.3334 13.1108 21.3334 11.9997C21.3334 10.8886 21.7223 9.94412 22.5001 9.16634C23.2779 8.38856 24.2223 7.99967 25.3334 7.99967C25.5779 7.99967 25.8112 8.0219 26.0334 8.06634C26.2556 8.11079 26.4667 8.16634 26.6667 8.23301V1.33301H32.0001V3.99967H29.3334V11.9997C29.3334 13.1108 28.9445 14.0552 28.1667 14.833C27.389 15.6108 26.4445 15.9997 25.3334 15.9997ZM8.00008 14.6663H17.3334V11.9997H8.00008V14.6663ZM8.00008 10.6663H17.3334V7.99967H8.00008V10.6663Z" fill="#5F5F5F"/>
</g>
</svg>
